<svg width="16" height="16" viewBox="0 0 16 16" fill="none" xmlns="http://www.w3.org/2000/svg">
  <path d="M0.800049 9.22414C0.800049 9.22414 3.6763 8.73685 4.9025 7.47385C6.1287 6.21084 6.60179 3.24827 6.60179 3.24827C6.60179 3.24827 6.95808 6.21084 8.18428 7.47385C9.41048 8.73685 12.4035 9.22414 12.4035 9.22414C12.4035 9.22414 9.37136 9.63142 8.18428 10.8541C6.9972 12.0768 6.60179 15.2 6.60179 15.2C6.60179 15.2 6.14687 12.1358 4.9025 10.8541C3.65813 9.5724 0.800049 9.22414 0.800049 9.22414Z" stroke="#1B6CAE" stroke-linejoin="round"/>
  <path d="M9.5144 3.72811C9.5144 3.72811 10.9237 3.48934 11.5246 2.87049C12.1254 2.25163 12.3572 0.800005 12.3572 0.800005C12.3572 0.800005 12.5318 2.25163 13.1326 2.87049C13.7334 3.48934 15.2 3.72811 15.2 3.72811C15.2 3.72811 13.7142 3.92767 13.1326 4.52678C12.5509 5.12589 12.3572 6.65622 12.3572 6.65622C12.3572 6.65622 12.1343 5.15481 11.5246 4.52678C10.9148 3.89876 9.5144 3.72811 9.5144 3.72811Z" stroke="#1B6CAE" stroke-linejoin="round"/>
  <path d="M10.3066 13.2802C10.3066 13.2802 11.2076 13.1276 11.5917 12.732C11.9758 12.3363 12.124 11.4084 12.124 11.4084C12.124 11.4084 12.2356 12.3363 12.6196 12.732C13.0037 13.1276 13.9413 13.2802 13.9413 13.2802C13.9413 13.2802 12.9915 13.4078 12.6196 13.7908C12.2478 14.1738 12.124 15.1521 12.124 15.1521C12.124 15.1521 11.9815 14.1923 11.5917 13.7908C11.2019 13.3893 10.3066 13.2802 10.3066 13.2802Z" stroke="#1B6CAE" stroke-linejoin="round"/>
  <path d="M1.98828 3.4253C1.98828 3.4253 2.4661 3.34435 2.66981 3.13453C2.87351 2.92471 2.95211 2.43255 2.95211 2.43255C2.95211 2.43255 3.0113 2.92471 3.215 3.13453C3.41871 3.34435 3.91593 3.4253 3.91593 3.4253C3.91593 3.4253 3.41221 3.49296 3.215 3.69608C3.0178 3.89921 2.95211 4.41805 2.95211 4.41805C2.95211 4.41805 2.87653 3.90901 2.66981 3.69608C2.46309 3.48316 1.98828 3.4253 1.98828 3.4253Z" stroke="#1B6CAE" stroke-linejoin="round"/>
</svg>
