<svg width="24" height="24" viewBox="0 0 24 24" fill="none" xmlns="http://www.w3.org/2000/svg">
  <path d="M 14.00 10.89 L 15.00 10.89 L 15.00 10.89 L 14.00 10.89 M 14.00 10.95 L 13.00 10.95 L 14.00 10.95 M 13.47 13.63 L 14.39 14.01 L 14.39 14.01 L 13.47 13.63 M 11.95 15.90 L 12.66 16.61 L 12.66 16.61 L 11.95 15.90 M 9.68 17.42 L 10.06 18.34 L 10.06 18.34 L 9.68 17.42 M 7.00 17.95 L 7.00 18.95 L 7.00 18.95 L 7.00 17.95 M 4.32 17.42 L 3.94 18.34 L 3.94 18.34 L 4.32 17.42 M 2.05 15.90 L 1.34 16.61 L 1.34 16.61 L 2.05 15.90 M 0.53 13.63 L -0.39 14.01 L -0.39 14.01 L 0.53 13.63 M 0.00 10.95 L -1.00 10.95 L -1.00 10.95 L 0.00 10.95 M 10.41 3.02 L 9.77 2.25 L 10.41 3.02 M 10.59 3.02 L 9.95 3.79 L 10.59 3.02 M 8.11 5.49 L 7.16 5.81 L 8.11 5.49 M 8.39 5.51 L 7.52 5.02 L 8.39 5.51 M 4.81 0.04 L 5.47 0.78 L 4.81 0.04 M 5.00 0.05 L 4.27 0.73 C 4.62 1.10 6.17 2.88 7.16 5.81 L 8.11 5.49 L 9.06 5.17 C 7.95 1.89 6.20 -0.13 5.74 -0.63 L 5.00 0.05 M 8.39 5.51 L 9.26 6.01 C 10.00 4.72 10.83 3.97 11.05 3.79 L 10.41 3.02 L 9.77 2.25 C 9.43 2.54 8.41 3.46 7.52 5.02 L 8.39 5.51 M 10.59 3.02 L 9.95 3.79 C 10.39 4.16 13.00 6.53 13.00 10.89 L 14.00 10.89 L 15.00 10.89 C 15.00 5.67 11.87 2.79 11.23 2.25 L 10.59 3.02 M 14.00 10.89 L 13.00 10.89 L 13.00 10.95 L 14.00 10.95 L 15.00 10.95 L 15.00 10.89 L 14.00 10.89 M 14.00 10.95 L 13.00 10.95 C 13.00 11.74 12.84 12.52 12.54 13.24 L 13.47 13.63 L 14.39 14.01 C 14.79 13.04 15.00 12.00 15.00 10.95 L 14.00 10.95 M 13.47 13.63 L 12.54 13.24 C 12.24 13.97 11.80 14.63 11.24 15.19 L 11.95 15.90 L 12.66 16.61 C 13.40 15.86 13.99 14.98 14.39 14.01 L 13.47 13.63 M 11.95 15.90 L 11.24 15.19 C 10.69 15.75 10.02 16.19 9.30 16.49 L 9.68 17.42 L 10.06 18.34 C 11.03 17.94 11.91 17.35 12.66 16.61 L 11.95 15.90 M 9.68 17.42 L 9.30 16.49 C 8.57 16.79 7.79 16.95 7.00 16.95 L 7.00 17.95 L 7.00 18.95 C 8.05 18.95 9.09 18.74 10.06 18.34 L 9.68 17.42 M 7.00 17.95 L 7.00 16.95 C 6.21 16.95 5.43 16.79 4.70 16.49 L 4.32 17.42 L 3.94 18.34 C 4.91 18.74 5.95 18.95 7.00 18.95 L 7.00 17.95 M 4.32 17.42 L 4.70 16.49 C 3.98 16.19 3.31 15.75 2.76 15.19 L 2.05 15.90 L 1.34 16.61 C 2.09 17.35 2.97 17.94 3.94 18.34 L 4.32 17.42 M 2.05 15.90 L 2.76 15.19 C 2.20 14.63 1.76 13.97 1.46 13.24 L 0.53 13.63 L -0.39 14.01 C 0.01 14.98 0.60 15.86 1.34 16.61 L 2.05 15.90 M 0.53 13.63 L 1.46 13.24 C 1.16 12.52 1.00 11.74 1.00 10.95 L 0.00 10.95 L -1.00 10.95 C -1.00 12.00 -0.79 13.04 -0.39 14.01 L 0.53 13.63 M 0.00 10.95 L 1.00 10.95 C 1.00 5.03 4.84 1.35 5.47 0.78 L 4.81 0.04 L 4.14 -0.71 C 3.38 -0.03 -1.00 4.15 -1.00 10.95 L 0.00 10.95 M 10.41 3.02 L 11.05 3.79 C 10.73 4.05 10.27 4.05 9.95 3.79 L 10.59 3.02 L 11.23 2.25 C 10.81 1.90 10.19 1.90 9.77 2.25 L 10.41 3.02 M 8.11 5.49 L 7.16 5.81 C 7.48 6.77 8.78 6.86 9.26 6.01 L 8.39 5.51 L 7.52 5.02 C 7.88 4.40 8.82 4.46 9.06 5.17 L 8.11 5.49 M 5.00 0.05 L 5.74 -0.63 C 5.33 -1.07 4.63 -1.14 4.14 -0.71 L 4.81 0.04 L 5.47 0.78 C 5.11 1.11 4.57 1.05 4.27 0.73 L 5.00 0.05" fill="#222222" fill-rule="nonzero" transform="translate(5 3.051669)"/>
  <path d="M 3.46 0.19 L 2.83 -0.59 L 2.83 -0.59 L 3.46 0.19 M 4.54 0.19 L 5.17 -0.59 L 5.17 -0.59 L 4.54 0.19 M 7.95 5.17 L 8.94 5.02 L 8.94 5.02 L 7.95 5.17 M 7.95 5.17 L 6.96 5.31 L 6.97 5.32 L 7.95 5.17 M 8.00 5.78 L 9.00 5.78 L 9.00 5.78 L 8.00 5.78 M 0.00 5.78 L -1.00 5.78 L -1.00 5.78 L 0.00 5.78 M 0.05 5.17 L 1.03 5.32 L 1.04 5.31 L 0.05 5.17 M 0.05 5.17 L -0.94 5.02 L -0.94 5.02 L 0.05 5.17 M 3.46 0.19 L 4.08 0.97 C 4.07 0.99 4.04 1.00 4.00 1.00 C 3.96 1.00 3.93 0.99 3.92 0.97 L 4.54 0.19 L 5.17 -0.59 C 4.48 -1.14 3.52 -1.14 2.83 -0.59 L 3.46 0.19 M 4.54 0.19 L 3.92 0.97 C 4.38 1.35 5.09 1.98 5.72 2.76 C 6.35 3.55 6.83 4.43 6.96 5.32 L 7.95 5.17 L 8.94 5.02 C 8.74 3.65 8.02 2.44 7.28 1.52 C 6.53 0.58 5.70 -0.16 5.17 -0.59 L 4.54 0.19 M 7.95 5.17 L 6.96 5.31 C 6.96 5.28 6.96 5.25 6.96 5.22 C 6.95 5.19 6.95 5.17 6.95 5.15 C 6.95 5.14 6.96 5.12 6.96 5.11 C 6.96 5.11 6.96 5.11 6.96 5.10 C 6.96 5.10 6.96 5.10 6.96 5.10 C 6.96 5.10 6.96 5.10 6.96 5.10 C 6.96 5.10 6.96 5.10 6.96 5.10 C 6.96 5.10 6.96 5.10 6.96 5.10 C 6.96 5.10 6.96 5.10 6.96 5.10 C 6.96 5.11 6.96 5.11 6.96 5.11 C 6.96 5.12 6.95 5.14 6.95 5.15 C 6.95 5.17 6.95 5.19 6.96 5.22 C 6.96 5.25 6.96 5.28 6.96 5.31 L 7.95 5.17 L 8.94 5.03 C 8.95 5.07 8.95 5.10 8.95 5.13 C 8.95 5.15 8.95 5.18 8.95 5.19 C 8.95 5.21 8.95 5.22 8.95 5.23 C 8.95 5.23 8.95 5.24 8.95 5.24 C 8.95 5.24 8.95 5.24 8.95 5.24 C 8.95 5.24 8.95 5.24 8.95 5.24 C 8.95 5.23 8.95 5.23 8.95 5.23 C 8.95 5.22 8.95 5.20 8.95 5.19 C 8.95 5.17 8.95 5.14 8.95 5.12 C 8.95 5.09 8.95 5.06 8.94 5.02 L 7.95 5.17 M 7.95 5.17 L 6.97 5.32 C 6.99 5.47 7.00 5.63 7.00 5.78 L 8.00 5.78 L 9.00 5.78 C 9.00 5.53 8.98 5.27 8.94 5.02 L 7.95 5.17 M 8.00 5.78 L 7.00 5.78 C 7.00 7.44 5.66 8.78 4.00 8.78 L 4.00 9.78 L 4.00 10.78 C 6.76 10.78 9.00 8.54 9.00 5.78 L 8.00 5.78 M 4.00 9.78 L 4.00 8.78 C 2.34 8.78 1.00 7.44 1.00 5.78 L 0.00 5.78 L -1.00 5.78 C -1.00 8.54 1.24 10.78 4.00 10.78 L 4.00 9.78 M 0.00 5.78 L 1.00 5.78 C 1.00 5.63 1.01 5.47 1.03 5.32 L 0.05 5.17 L -0.94 5.02 C -0.98 5.27 -1.00 5.53 -1.00 5.78 L 0.00 5.78 M 0.05 5.17 L 1.04 5.31 C 1.04 5.28 1.04 5.25 1.04 5.22 C 1.05 5.19 1.05 5.17 1.05 5.15 C 1.05 5.14 1.04 5.12 1.04 5.11 C 1.04 5.11 1.04 5.11 1.04 5.10 C 1.04 5.10 1.04 5.10 1.04 5.10 C 1.04 5.10 1.04 5.10 1.04 5.10 C 1.04 5.10 1.04 5.10 1.04 5.10 C 1.04 5.10 1.04 5.10 1.04 5.10 C 1.04 5.10 1.04 5.10 1.04 5.10 C 1.04 5.11 1.04 5.11 1.04 5.11 C 1.04 5.12 1.05 5.14 1.05 5.15 C 1.05 5.17 1.05 5.19 1.04 5.22 C 1.04 5.25 1.04 5.28 1.04 5.31 L 0.05 5.17 L -0.94 5.02 C -0.95 5.06 -0.95 5.09 -0.95 5.12 C -0.95 5.14 -0.95 5.17 -0.95 5.19 C -0.95 5.20 -0.95 5.22 -0.95 5.23 C -0.95 5.23 -0.95 5.23 -0.95 5.24 C -0.95 5.24 -0.95 5.24 -0.95 5.24 C -0.95 5.24 -0.95 5.24 -0.95 5.24 C -0.95 5.24 -0.95 5.23 -0.95 5.23 C -0.95 5.22 -0.95 5.21 -0.95 5.19 C -0.95 5.18 -0.95 5.15 -0.95 5.13 C -0.95 5.10 -0.95 5.07 -0.94 5.03 L 0.05 5.17 M 0.05 5.17 L 1.04 5.32 C 1.17 4.43 1.65 3.55 2.28 2.76 C 2.91 1.98 3.62 1.35 4.08 0.97 L 3.46 0.19 L 2.83 -0.59 C 2.30 -0.16 1.47 0.58 0.72 1.52 C -0.02 2.44 -0.74 3.65 -0.94 5.02 L 0.05 5.17" fill="#222222" fill-rule="nonzero" transform="translate(8 11.216797)"/>
</svg>
