<svg width="36" height="36" viewBox="0 0 36 36" fill="none" xmlns="http://www.w3.org/2000/svg">
<path d="M28.5 28.5H7.5" stroke="#33363F" stroke-width="2" stroke-linecap="round"/>
<path d="M14.5 12H12.5C11.3954 12 10.5 12.8954 10.5 14V22C10.5 23.1046 11.3954 24 12.5 24H14.5C15.6046 24 16.5 23.1046 16.5 22V14C16.5 12.8954 15.6046 12 14.5 12Z" fill="#33363F"/>
<path d="M23.5 6H21.5C20.3954 6 19.5 6.89543 19.5 8V22C19.5 23.1046 20.3954 24 21.5 24H23.5C24.6046 24 25.5 23.1046 25.5 22V8C25.5 6.89543 24.6046 6 23.5 6Z" fill="#33363F"/>
</svg>
