<svg width="36" height="36" viewBox="0 0 36 36" fill="none" xmlns="http://www.w3.org/2000/svg">
<path d="M20.25 23.5C20.5261 23.5 20.75 23.7239 20.75 24V31.5H15.25V24C15.25 23.7239 15.4739 23.5 15.75 23.5H20.25ZM18 7.42676C19.6647 7.42676 21.0624 8.62481 23.8574 11.0205L25.3574 12.3057C26.9038 13.6311 27.6762 14.2943 28.0879 15.1895C28.4996 16.0846 28.5 17.103 28.5 19.1396V25.5C28.5 28.3284 28.4998 29.7424 27.6211 30.6211C26.7687 31.4734 25.4125 31.4983 22.75 31.499V24C22.75 22.6193 21.6307 21.5 20.25 21.5H15.75C14.3693 21.5 13.25 22.6193 13.25 24V31.499C10.5875 31.4983 9.23131 31.4734 8.37891 30.6211C7.50024 29.7424 7.5 28.3284 7.5 25.5V19.1396C7.5 17.103 7.50042 16.0846 7.91211 15.1895C8.3238 14.2943 9.09625 13.6311 10.6426 12.3057L12.1426 11.0205C14.9376 8.62481 16.3353 7.42676 18 7.42676Z" fill="#222222"/>
</svg>
